<?xml version="1.0" encoding="UTF-8"?>
<svg xmlns="http://www.w3.org/2000/svg" xmlns:xlink="http://www.w3.org/1999/xlink" width="361pt" height="61pt" viewBox="0 0 361 61" version="1.1">
<g id="surface1">
<path style=" stroke:none;fill-rule:nonzero;fill:rgb(100%,100%,100%);fill-opacity:1;" d="M 160.625 50.503906 L 264.375 50.503906 L 264.375 11.128906 L 160.625 11.128906 Z M 160.625 50.503906 "/>
<path style="fill:none;stroke-width:1;stroke-linecap:round;stroke-linejoin:round;stroke:rgb(0%,0%,0%);stroke-opacity:1;stroke-miterlimit:10;" d="M 142.5 19.903125 L 225.5 19.903125 L 225.5 51.403125 L 142.5 51.403125 Z M 142.5 19.903125 " transform="matrix(1.25,0,0,1.25,-17.5,-13.75)"/>
<path style=" stroke:none;fill-rule:nonzero;fill:rgb(0%,0%,0%);fill-opacity:1;" d="M 194.453125 29.097656 L 192.558594 29.097656 C 192.929688 28.667969 193.300781 28.160156 193.691406 27.554688 L 193.691406 26.96875 L 191.09375 26.96875 C 191.230469 26.695312 191.367188 26.402344 191.484375 26.089844 L 190.703125 25.992188 C 190.253906 27.183594 189.394531 28.179688 188.125 29 L 188.59375 29.605469 C 188.769531 29.488281 188.945312 29.351562 189.140625 29.214844 L 189.140625 32.203125 L 188.476562 32.203125 L 188.476562 32.925781 L 191.015625 32.925781 C 190.566406 34.058594 189.609375 34.996094 188.164062 35.738281 L 188.652344 36.363281 C 190.292969 35.464844 191.347656 34.351562 191.777344 33.003906 C 192.382812 34.390625 193.417969 35.503906 194.902344 36.324219 L 195.234375 35.582031 C 193.984375 34.9375 193.066406 34.058594 192.480469 32.925781 L 195.117188 32.925781 L 195.117188 32.203125 L 194.453125 32.203125 Z M 189.882812 32.203125 L 189.882812 29.820312 L 191.445312 29.820312 C 191.425781 30.738281 191.347656 31.539062 191.210938 32.203125 Z M 191.972656 32.203125 C 192.089844 31.558594 192.167969 30.757812 192.1875 29.820312 L 193.730469 29.820312 L 193.730469 32.203125 Z M 191.699219 29.097656 L 189.277344 29.097656 C 189.824219 28.667969 190.273438 28.179688 190.664062 27.671875 L 192.792969 27.671875 C 192.421875 28.21875 192.070312 28.707031 191.699219 29.097656 Z M 188.027344 26.988281 L 185.292969 26.988281 L 185.292969 34.625 L 186.054688 34.625 L 186.054688 33.824219 L 188.027344 33.824219 Z M 186.054688 33.082031 L 186.054688 27.730469 L 187.304688 27.730469 L 187.304688 33.082031 Z M 186.054688 33.082031 "/>
<path style=" stroke:none;fill-rule:nonzero;fill:rgb(0%,0%,0%);fill-opacity:1;" d="M 197.148438 33.785156 L 199.882812 33.785156 L 199.882812 34.9375 L 197.148438 34.9375 Z M 199.882812 35.621094 L 199.882812 36.246094 L 200.527344 36.246094 L 200.527344 28.53125 L 199.453125 28.53125 L 199.453125 27.183594 L 200.761719 27.183594 L 200.761719 26.460938 L 196.152344 26.460938 L 196.152344 27.183594 L 197.597656 27.183594 L 197.597656 28.53125 L 196.503906 28.53125 L 196.503906 36.246094 L 197.148438 36.246094 L 197.148438 35.621094 Z M 198.828125 28.53125 L 198.222656 28.53125 L 198.222656 27.183594 L 198.828125 27.183594 Z M 199.882812 33.121094 L 197.148438 33.121094 L 197.148438 32.28125 L 197.5 32.574219 C 197.988281 32.027344 198.242188 31.148438 198.261719 29.957031 L 198.261719 29.214844 L 198.808594 29.214844 L 198.808594 31.480469 C 198.808594 31.871094 198.984375 32.066406 199.335938 32.066406 L 199.882812 32.066406 Z M 199.277344 29.214844 L 199.882812 29.214844 L 199.882812 31.558594 L 199.453125 31.558594 C 199.335938 31.558594 199.277344 31.480469 199.277344 31.382812 Z M 197.148438 32.242188 L 197.148438 29.214844 L 197.792969 29.214844 L 197.792969 29.957031 C 197.792969 30.992188 197.578125 31.734375 197.148438 32.242188 Z M 201.347656 26.421875 L 201.347656 30.210938 L 205.878906 30.210938 L 205.878906 26.421875 Z M 205.117188 29.546875 L 202.109375 29.546875 L 202.109375 28.648438 L 205.117188 28.648438 Z M 202.109375 27.984375 L 202.109375 27.066406 L 205.117188 27.066406 L 205.117188 27.984375 Z M 201.953125 32.164062 L 203.359375 32.164062 L 203.359375 33.355469 L 201.640625 33.355469 L 201.640625 34.058594 L 203.359375 34.058594 L 203.359375 35.289062 L 201.015625 35.289062 L 201.015625 36.050781 L 206.367188 36.050781 L 206.367188 35.289062 L 204.140625 35.289062 L 204.140625 34.058594 L 205.820312 34.058594 L 205.820312 33.355469 L 204.140625 33.355469 L 204.140625 32.164062 L 206.074219 32.164062 L 206.074219 31.460938 L 204.140625 31.460938 L 204.140625 30.5625 L 203.359375 30.5625 L 203.359375 31.460938 L 202.226562 31.460938 C 202.304688 31.207031 202.363281 30.914062 202.421875 30.621094 L 201.71875 30.542969 C 201.523438 31.480469 201.191406 32.28125 200.664062 32.925781 L 201.132812 33.53125 C 201.445312 33.121094 201.738281 32.652344 201.953125 32.164062 Z M 201.953125 32.164062 "/>
<path style=" stroke:none;fill-rule:nonzero;fill:rgb(0%,0%,0%);fill-opacity:1;" d="M 216.015625 36.265625 C 216.796875 36.265625 217.207031 35.894531 217.207031 35.152344 L 217.207031 26.480469 L 211.035156 26.480469 L 211.035156 27.242188 L 216.40625 27.242188 L 216.40625 34.917969 C 216.40625 35.308594 216.210938 35.523438 215.839844 35.523438 L 214.511719 35.503906 L 214.707031 36.265625 Z M 211.289062 28.570312 L 211.289062 29.332031 L 215.625 29.332031 L 215.625 28.570312 Z M 211.699219 30.5625 L 211.699219 34.058594 L 215.175781 34.058594 L 215.175781 30.5625 Z M 214.414062 33.355469 L 212.480469 33.355469 L 212.480469 31.285156 L 214.414062 31.285156 Z M 208.691406 26.109375 L 208.144531 26.65625 C 208.945312 27.261719 209.589844 27.847656 210.078125 28.414062 L 210.625 27.847656 C 210.097656 27.261719 209.453125 26.695312 208.691406 26.109375 Z M 207.363281 29.449219 L 207.363281 30.210938 L 209.003906 30.210938 L 209.003906 34.703125 C 209.003906 34.878906 208.90625 35.035156 208.75 35.171875 L 209.0625 35.894531 C 209.765625 35.40625 210.429688 34.839844 211.054688 34.195312 L 210.839844 33.316406 C 210.449219 33.726562 210.097656 34.058594 209.785156 34.371094 L 209.785156 29.449219 Z M 207.363281 29.449219 "/>
<path style=" stroke:none;fill-rule:nonzero;fill:rgb(0%,0%,0%);fill-opacity:1;" d="M 222.050781 26.929688 L 222.050781 27.652344 L 223.691406 27.652344 L 223.691406 28.492188 L 224.453125 28.492188 L 224.453125 27.652344 L 226.25 27.652344 L 226.25 28.492188 L 227.03125 28.492188 L 227.03125 27.652344 L 228.769531 27.652344 L 228.769531 26.929688 L 227.03125 26.929688 L 227.03125 26.03125 L 226.25 26.03125 L 226.25 26.929688 L 224.453125 26.929688 L 224.453125 26.03125 L 223.691406 26.03125 L 223.691406 26.929688 Z M 225.214844 34 C 225.859375 34.9375 226.914062 35.71875 228.378906 36.34375 L 228.90625 35.699219 C 227.578125 35.230469 226.601562 34.625 225.9375 33.84375 L 228.789062 33.84375 L 228.789062 33.101562 L 225.546875 33.101562 C 225.625 32.847656 225.683594 32.574219 225.722656 32.261719 L 228.027344 32.261719 L 228.027344 28.84375 L 222.65625 28.84375 L 222.65625 32.261719 L 225.019531 32.261719 C 224.960938 32.554688 224.882812 32.847656 224.804688 33.101562 L 221.835938 33.101562 L 221.835938 33.84375 L 224.453125 33.84375 C 224.375 34.019531 224.257812 34.15625 224.140625 34.292969 C 223.652344 34.878906 222.851562 35.308594 221.71875 35.621094 L 222.011719 36.285156 C 223.320312 35.914062 224.21875 35.425781 224.726562 34.761719 C 224.902344 34.546875 225.078125 34.273438 225.214844 34 Z M 220.957031 30.5625 C 221.25 31.011719 221.621094 31.617188 222.03125 32.359375 L 222.460938 31.714844 C 221.933594 30.953125 221.445312 30.289062 220.957031 29.703125 L 220.957031 28.960938 L 222.148438 28.960938 L 222.148438 28.21875 L 220.957031 28.21875 L 220.957031 26.050781 L 220.195312 26.050781 L 220.195312 28.21875 L 218.886719 28.21875 L 218.886719 28.960938 L 220.195312 28.960938 L 220.195312 29.019531 C 219.863281 30.40625 219.296875 31.617188 218.515625 32.691406 L 218.867188 33.570312 C 219.414062 32.710938 219.84375 31.734375 220.195312 30.679688 L 220.195312 36.285156 L 220.957031 36.285156 Z M 227.304688 31.617188 L 223.378906 31.617188 L 223.378906 30.855469 L 227.304688 30.855469 Z M 223.378906 30.25 L 223.378906 29.507812 L 227.304688 29.507812 L 227.304688 30.25 Z M 223.378906 30.25 "/>
<path style=" stroke:none;fill-rule:nonzero;fill:rgb(0%,0%,0%);fill-opacity:1;" d="M 230.429688 26.5 L 230.429688 27.222656 L 231.5625 27.222656 L 231.5625 28.921875 L 230.136719 28.921875 L 230.136719 29.664062 L 231.523438 29.664062 C 231.40625 30.582031 231.035156 31.265625 230.410156 31.734375 L 231.015625 32.261719 C 231.757812 31.675781 232.1875 30.816406 232.304688 29.664062 L 233.789062 29.664062 L 233.789062 32.125 L 234.570312 32.125 L 234.570312 29.664062 L 235.957031 29.664062 L 235.957031 28.921875 L 234.570312 28.921875 L 234.570312 27.222656 L 235.703125 27.222656 L 235.703125 26.5 Z M 232.34375 27.222656 L 233.789062 27.222656 L 233.789062 28.921875 L 232.34375 28.921875 Z M 236.621094 26.773438 L 236.621094 30.640625 L 237.402344 30.640625 L 237.402344 26.773438 Z M 230.683594 33.238281 L 230.683594 33.980469 L 234.648438 33.980469 L 234.648438 35.289062 L 230.058594 35.289062 L 230.058594 36.03125 L 239.941406 36.03125 L 239.941406 35.289062 L 235.449219 35.289062 L 235.449219 33.980469 L 239.316406 33.980469 L 239.316406 33.238281 L 235.449219 33.238281 L 235.449219 32.261719 L 234.648438 32.261719 L 234.648438 33.238281 Z M 238.535156 32.242188 C 239.121094 32.242188 239.433594 31.890625 239.433594 31.207031 L 239.433594 26.148438 L 238.652344 26.148438 L 238.652344 31.011719 C 238.652344 31.34375 238.515625 31.519531 238.261719 31.519531 C 237.8125 31.519531 237.34375 31.5 236.855469 31.460938 L 237.03125 32.242188 Z M 238.535156 32.242188 "/>
<path style=" stroke:none;fill-rule:nonzero;fill:rgb(0%,0%,0%);fill-opacity:1;" d="M 52.007812 28.179688 C 50.523438 26.695312 48.085938 26.710938 46.585938 28.203125 C 45.085938 29.703125 45.078125 32.144531 46.5625 33.625 C 48.042969 35.109375 50.484375 35.097656 51.984375 33.597656 C 53.476562 32.101562 53.492188 29.664062 52.007812 28.179688 Z M 57.375 38.992188 C 61.878906 34.488281 61.917969 27.195312 57.457031 22.730469 C 52.988281 18.265625 45.699219 18.304688 41.191406 22.8125 C 38.167969 25.835938 37.171875 30.09375 38.167969 33.921875 L 41.890625 32.898438 C 41.234375 30.347656 41.875 27.523438 43.890625 25.507812 C 46.898438 22.5 51.75 22.476562 54.730469 25.453125 C 57.710938 28.4375 57.6875 33.285156 54.679688 36.292969 C 52.660156 38.3125 49.839844 38.949219 47.285156 38.296875 L 46.265625 42.015625 C 50.09375 43.011719 54.351562 42.015625 57.375 38.992188 Z M 62.898438 17.285156 C 55.453125 9.839844 43.316406 9.898438 35.796875 17.417969 C 30.761719 22.457031 29.085938 29.550781 30.746094 35.921875 L 34.453125 34.917969 C 33.132812 29.8125 34.460938 24.144531 38.496094 20.113281 C 44.511719 14.097656 54.21875 14.046875 60.175781 20.007812 C 66.136719 25.96875 66.089844 35.671875 60.074219 41.6875 C 56.039062 45.722656 50.371094 47.050781 45.253906 45.71875 L 44.25 49.421875 C 50.632812 51.097656 57.730469 49.421875 62.769531 44.390625 C 70.289062 36.871094 70.347656 24.730469 62.898438 17.285156 Z M 62.898438 17.285156 "/>
<path style=" stroke:none;fill-rule:nonzero;fill:rgb(100%,100%,100%);fill-opacity:1;" d="M 27.617188 10.59375 L 64.644531 47.625 L 51.890625 60.382812 L 14.859375 23.351562 Z M 27.617188 10.59375 "/>
<path style=" stroke:none;fill-rule:nonzero;fill:rgb(100%,100%,100%);fill-opacity:1;" d="M 50.113281 1.25 L 63.59375 14.734375 L 28.613281 49.722656 L 15.125 36.234375 Z M 50.113281 1.25 "/>
<path style=" stroke:none;fill-rule:nonzero;fill:rgb(0%,0%,0%);fill-opacity:1;" d="M 94.277344 47.804688 L 97 47.804688 L 97 45.078125 L 94.277344 45.078125 Z M 101.089844 32.816406 C 103.351562 32.816406 105.160156 30.992188 105.160156 28.730469 L 105.175781 20.554688 C 105.175781 18.296875 103.351562 16.46875 101.089844 16.46875 C 98.828125 16.46875 97 18.296875 97 20.554688 L 97 28.730469 C 97 30.992188 98.828125 32.816406 101.089844 32.816406 Z M 99.726562 47.804688 L 102.453125 47.804688 L 102.453125 45.078125 L 99.726562 45.078125 Z M 105.175781 47.804688 L 107.898438 47.804688 L 107.898438 45.078125 L 105.175781 45.078125 Z M 110.625 28.730469 L 108.3125 28.730469 C 108.3125 32.816406 104.847656 35.679688 101.089844 35.679688 C 97.328125 35.679688 93.867188 32.816406 93.867188 28.730469 L 91.554688 28.730469 C 91.554688 33.375 95.257812 37.21875 99.726562 37.886719 L 99.726562 42.351562 L 102.453125 42.351562 L 102.453125 37.886719 C 106.917969 37.21875 110.625 33.375 110.625 28.730469 Z M 110.625 28.730469 "/>
<path style=" stroke:none;fill-rule:nonzero;fill:rgb(0%,0%,0%);fill-opacity:1;" d="M 20.445312 38.945312 C 19.628906 39.875 18.320312 40.308594 16.972656 40.308594 C 15.625 40.308594 14.316406 39.875 13.304688 39.082031 C 13.007812 38.851562 12.582031 38.90625 12.351562 39.203125 C 12.125 39.507812 12.179688 39.925781 12.476562 40.160156 C 13.714844 41.140625 15.320312 41.671875 16.972656 41.671875 C 18.617188 41.671875 20.230469 41.140625 21.480469 40.171875 C 21.78125 39.941406 21.835938 39.523438 21.601562 39.21875 C 21.371094 38.90625 20.9375 38.867188 20.445312 38.945312 Z M 13.632812 32.816406 C 13.632812 32.066406 12.953125 31.453125 12.203125 31.453125 C 11.449219 31.453125 10.839844 32.066406 10.839844 32.816406 C 10.839844 33.570312 11.449219 34.179688 12.203125 34.179688 C 12.953125 34.179688 13.5625 33.570312 13.632812 32.816406 Z M 17.039062 15.789062 C 7.9375 15.789062 0.625 23.105469 0.625 32.132812 C 0.625 41.167969 7.9375 48.480469 16.972656 48.480469 C 26 48.480469 33.320312 41.167969 33.320312 32.132812 C 33.320312 23.105469 26 15.789062 17.039062 15.789062 Z M 27.9375 36.21875 C 26.328125 41.074219 21.996094 44.773438 16.859375 44.773438 C 11.714844 44.773438 7.382812 41.074219 5.90625 35.960938 C 4.289062 35.816406 3.007812 34.355469 3.007812 32.53125 C 3.007812 30.800781 4.164062 29.382812 5.695312 29.125 C 8.539062 27.140625 10.867188 24.371094 11.59375 22.246094 L 11.59375 22.230469 C 13.101562 25.816406 19.84375 29.300781 27.378906 29.125 L 27.789062 29.085938 C 29.53125 29.085938 30.933594 30.640625 30.933594 32.542969 C 30.933594 34.421875 29.546875 35.960938 27.9375 36.21875 Z M 23.167969 32.816406 C 23.167969 32.066406 22.492188 31.453125 21.738281 31.453125 C 20.984375 31.453125 20.375 32.066406 20.375 32.816406 C 20.375 33.570312 20.984375 34.179688 21.738281 34.179688 C 22.492188 34.179688 23.101562 33.570312 23.167969 32.816406 Z M 23.167969 32.816406 "/>
<path style=" stroke:none;fill-rule:nonzero;fill:rgb(0%,0%,0%);fill-opacity:1;" d="M 321.601562 27.652344 L 321.601562 26.96875 L 320.820312 26.96875 C 320.671875 26.96875 320.53125 27 320.390625 27.066406 C 320.242188 27.132812 320.117188 27.230469 320 27.359375 C 319.882812 27.476562 319.785156 27.625 319.707031 27.808594 C 319.628906 27.992188 319.589844 28.199219 319.589844 28.433594 L 319.589844 30.484375 C 319.589844 30.679688 319.5625 30.863281 319.511719 31.03125 C 319.457031 31.199219 319.382812 31.34375 319.296875 31.460938 C 319.21875 31.566406 319.121094 31.648438 319.003906 31.714844 C 318.898438 31.78125 318.789062 31.8125 318.671875 31.8125 L 318.671875 32.574219 C 318.789062 32.574219 318.898438 32.605469 319.003906 32.671875 C 319.121094 32.738281 319.21875 32.828125 319.296875 32.945312 C 319.382812 33.050781 319.457031 33.1875 319.511719 33.355469 C 319.5625 33.511719 319.589844 33.695312 319.589844 33.902344 L 319.589844 35.933594 C 319.589844 36.167969 319.628906 36.371094 319.707031 36.558594 C 319.785156 36.753906 319.882812 36.910156 320 37.027344 C 320.117188 37.152344 320.242188 37.246094 320.390625 37.300781 C 320.53125 37.363281 320.671875 37.398438 320.820312 37.398438 L 321.601562 37.398438 L 321.601562 36.734375 L 321.035156 36.734375 C 320.929688 36.734375 320.839844 36.699219 320.761719 36.636719 C 320.695312 36.582031 320.644531 36.507812 320.605469 36.421875 C 320.566406 36.328125 320.539062 36.226562 320.527344 36.109375 C 320.511719 35.992188 320.507812 35.875 320.507812 35.757812 L 320.507812 33.726562 C 320.507812 33.441406 320.460938 33.207031 320.371094 33.023438 C 320.292969 32.828125 320.199219 32.671875 320.097656 32.554688 C 319.992188 32.4375 319.886719 32.351562 319.785156 32.300781 C 319.679688 32.25 319.589844 32.214844 319.511719 32.203125 L 319.511719 32.183594 C 319.589844 32.15625 319.679688 32.117188 319.785156 32.066406 C 319.886719 32 319.992188 31.910156 320.097656 31.792969 C 320.199219 31.675781 320.292969 31.527344 320.371094 31.34375 C 320.460938 31.160156 320.507812 30.933594 320.507812 30.660156 L 320.507812 28.609375 C 320.507812 28.492188 320.511719 28.375 320.527344 28.257812 C 320.539062 28.140625 320.566406 28.035156 320.605469 27.945312 C 320.644531 27.855469 320.695312 27.78125 320.761719 27.730469 C 320.839844 27.679688 320.929688 27.652344 321.035156 27.652344 Z M 321.601562 27.652344 "/>
<path style=" stroke:none;fill-rule:nonzero;fill:rgb(0%,0%,0%);fill-opacity:1;" d="M 324.117188 26.382812 L 324.117188 30.289062 L 330.953125 30.289062 L 330.953125 26.382812 Z M 330.171875 29.605469 L 324.917969 29.605469 L 324.917969 28.667969 L 330.171875 28.667969 Z M 324.917969 28.023438 L 324.917969 27.085938 L 330.171875 27.085938 L 330.171875 28.023438 Z M 327.222656 31.871094 L 327.222656 35.230469 C 326.988281 35.171875 326.773438 35.132812 326.597656 35.074219 C 326.011719 34.859375 325.464844 34.351562 324.996094 33.570312 C 325.152344 33.199219 325.269531 32.808594 325.386719 32.398438 L 324.625 32.261719 C 324.253906 33.667969 323.53125 34.78125 322.496094 35.621094 L 323.023438 36.285156 C 323.707031 35.738281 324.273438 35.054688 324.703125 34.214844 C 325.152344 34.957031 325.679688 35.445312 326.246094 35.699219 C 326.910156 35.992188 328.179688 36.128906 330.035156 36.128906 C 330.660156 36.148438 331.382812 36.167969 332.203125 36.167969 L 332.417969 35.386719 C 331.753906 35.425781 330.933594 35.425781 329.976562 35.425781 C 329.234375 35.425781 328.570312 35.386719 328.042969 35.347656 L 328.042969 33.84375 L 331.285156 33.84375 L 331.285156 33.140625 L 328.042969 33.140625 L 328.042969 31.871094 L 332.476562 31.871094 L 332.476562 31.109375 L 322.515625 31.109375 L 322.515625 31.871094 Z M 327.222656 31.871094 "/>
<path style=" stroke:none;fill-rule:nonzero;fill:rgb(0%,0%,0%);fill-opacity:1;" d="M 334.058594 33.941406 L 334.058594 35.191406 L 334.722656 35.191406 C 334.722656 35.277344 334.707031 35.375 334.683594 35.484375 C 334.667969 35.585938 334.636719 35.6875 334.585938 35.796875 C 334.53125 35.898438 334.460938 35.992188 334.371094 36.070312 C 334.292969 36.15625 334.1875 36.226562 334.058594 36.265625 L 334.058594 36.832031 C 334.5 36.699219 334.820312 36.480469 335.015625 36.167969 C 335.210938 35.863281 335.308594 35.503906 335.308594 35.074219 L 335.308594 33.941406 Z M 334.058594 33.941406 "/>
<path style=" stroke:none;fill-rule:nonzero;fill:rgb(0%,0%,0%);fill-opacity:1;" d="M 340.46875 26.519531 L 340.46875 27.320312 L 345.058594 27.320312 C 344.0625 28.550781 342.34375 29.605469 339.941406 30.484375 L 340.449219 31.148438 C 342.148438 30.464844 343.535156 29.683594 344.589844 28.804688 L 344.589844 31.753906 L 345.410156 31.753906 L 345.410156 28.042969 C 345.605469 27.808594 345.800781 27.554688 345.996094 27.320312 L 349.570312 27.320312 L 349.570312 26.519531 Z M 348.730469 32.144531 L 341.289062 32.144531 L 341.289062 36.265625 L 342.109375 36.265625 L 342.109375 35.738281 L 347.910156 35.738281 L 347.910156 36.265625 L 348.730469 36.265625 Z M 342.109375 34.957031 L 342.109375 32.945312 L 347.910156 32.945312 L 347.910156 34.957031 Z M 346.582031 28.316406 L 346.054688 28.84375 C 347.460938 29.683594 348.574219 30.484375 349.394531 31.226562 L 349.980469 30.640625 C 349.0625 29.859375 347.929688 29.078125 346.582031 28.316406 Z M 346.582031 28.316406 "/>
<path style=" stroke:none;fill-rule:nonzero;fill:rgb(0%,0%,0%);fill-opacity:1;" d="M 350.898438 36.734375 L 350.898438 37.398438 L 351.679688 37.398438 C 351.824219 37.398438 351.964844 37.363281 352.109375 37.300781 C 352.253906 37.246094 352.382812 37.152344 352.5 37.027344 C 352.617188 36.910156 352.707031 36.753906 352.773438 36.558594 C 352.851562 36.371094 352.890625 36.167969 352.890625 35.933594 L 352.890625 33.902344 C 352.890625 33.707031 352.917969 33.53125 352.96875 33.375 C 353.019531 33.207031 353.09375 33.0625 353.183594 32.945312 C 353.273438 32.828125 353.371094 32.738281 353.476562 32.671875 C 353.59375 32.605469 353.710938 32.574219 353.828125 32.574219 L 353.828125 31.8125 C 353.710938 31.8125 353.59375 31.785156 353.476562 31.734375 C 353.371094 31.667969 353.273438 31.578125 353.183594 31.460938 C 353.09375 31.34375 353.019531 31.207031 352.96875 31.050781 C 352.917969 30.882812 352.890625 30.691406 352.890625 30.484375 L 352.890625 28.433594 C 352.890625 28.199219 352.851562 27.992188 352.773438 27.808594 C 352.707031 27.625 352.617188 27.476562 352.5 27.359375 C 352.382812 27.230469 352.253906 27.132812 352.109375 27.066406 C 351.964844 27 351.824219 26.96875 351.679688 26.96875 L 350.898438 26.96875 L 350.898438 27.652344 L 351.464844 27.652344 C 351.570312 27.652344 351.652344 27.679688 351.71875 27.730469 C 351.796875 27.78125 351.855469 27.859375 351.894531 27.964844 C 351.933594 28.054688 351.960938 28.160156 351.972656 28.277344 C 351.984375 28.382812 351.992188 28.5 351.992188 28.628906 L 351.992188 30.660156 C 351.992188 30.945312 352.03125 31.1875 352.109375 31.382812 C 352.1875 31.566406 352.277344 31.714844 352.382812 31.832031 C 352.488281 31.949219 352.589844 32.035156 352.695312 32.085938 C 352.8125 32.136719 352.902344 32.171875 352.96875 32.183594 L 352.96875 32.203125 C 352.902344 32.230469 352.8125 32.273438 352.695312 32.339844 C 352.589844 32.390625 352.488281 32.476562 352.382812 32.59375 C 352.277344 32.710938 352.1875 32.859375 352.109375 33.042969 C 352.03125 33.226562 351.992188 33.453125 351.992188 33.726562 L 351.992188 35.757812 C 351.992188 35.882812 351.984375 36 351.972656 36.109375 C 351.960938 36.226562 351.933594 36.328125 351.894531 36.421875 C 351.855469 36.507812 351.796875 36.582031 351.71875 36.636719 C 351.652344 36.699219 351.570312 36.734375 351.464844 36.734375 Z M 350.898438 36.734375 "/>
<path style="fill:none;stroke-width:1;stroke-linecap:round;stroke-linejoin:round;stroke:rgb(0%,0%,0%);stroke-opacity:1;stroke-miterlimit:10;" d="M 111.5 35.25625 L 129.6 35.18125 " transform="matrix(1.25,0,0,1.25,-17.5,-13.75)"/>
<path style="fill:none;stroke-width:1;stroke-linecap:butt;stroke-linejoin:miter;stroke:rgb(0%,0%,0%);stroke-opacity:1;stroke-miterlimit:10;" d="M 133.6 35.159375 L 129.6 35.18125 M 129.59375 33.68125 L 133.6 35.159375 L 129.60625 36.68125 " transform="matrix(1.25,0,0,1.25,-17.5,-13.75)"/>
<path style="fill:none;stroke-width:1;stroke-linecap:round;stroke-linejoin:round;stroke:rgb(0%,0%,0%);stroke-opacity:1;stroke-miterlimit:10;" d="M 232.5 35.25625 L 250.6 35.18125 " transform="matrix(1.25,0,0,1.25,-17.5,-13.75)"/>
<path style="fill:none;stroke-width:1;stroke-linecap:butt;stroke-linejoin:miter;stroke:rgb(0%,0%,0%);stroke-opacity:1;stroke-miterlimit:10;" d="M 254.6 35.159375 L 250.6 35.18125 M 250.59375 33.68125 L 254.6 35.159375 L 250.60625 36.68125 " transform="matrix(1.25,0,0,1.25,-17.5,-13.75)"/>
</g>
</svg>
